<?xml version="1.0" encoding="UTF-8" standalone="no"?>
<!-- Created with Inkscape (http://www.inkscape.org/) -->

<svg
   xmlns:dc="http://purl.org/dc/elements/1.1/"
   xmlns:cc="http://creativecommons.org/ns#"
   xmlns:rdf="http://www.w3.org/1999/02/22-rdf-syntax-ns#"
   xmlns:svg="http://www.w3.org/2000/svg"
   xmlns="http://www.w3.org/2000/svg"
   xmlns:sodipodi="http://sodipodi.sourceforge.net/DTD/sodipodi-0.dtd"
   xmlns:inkscape="http://www.inkscape.org/namespaces/inkscape"
   width="18.062222mm"
   height="18.062222mm"
   viewBox="0 0 63.999998 63.999997"
   id="svg2"
   version="1.1"
   inkscape:version="0.91 r13725"
   sodipodi:docname="_inpiedi.svg">
  <defs
     id="defs4" />
  <sodipodi:namedview
     id="base"
     pagecolor="#ffffff"
     bordercolor="#666666"
     borderopacity="1.0"
     inkscape:pageopacity="0.0"
     inkscape:pageshadow="2"
     inkscape:zoom="1.8059231"
     inkscape:cx="-141.77446"
     inkscape:cy="84.102875"
     inkscape:document-units="px"
     inkscape:current-layer="layer1"
     showgrid="false"
     fit-margin-top="0"
     fit-margin-left="0"
     fit-margin-right="0"
     fit-margin-bottom="0"
     inkscape:window-width="1920"
     inkscape:window-height="1137"
     inkscape:window-x="-8"
     inkscape:window-y="-8"
     inkscape:window-maximized="1" />
  <metadata
     id="metadata7">
    <rdf:RDF>
      <cc:Work
         rdf:about="">
        <dc:format>image/svg+xml</dc:format>
        <dc:type
           rdf:resource="http://purl.org/dc/dcmitype/StillImage" />
        <dc:title></dc:title>
      </cc:Work>
    </rdf:RDF>
  </metadata>
  <g
     inkscape:label="Livello 1"
     inkscape:groupmode="layer"
     id="layer1"
     transform="translate(-374.37338,-436.39124)">
    <g
       id="g4333"
       transform="matrix(0.86230556,0,0,0.86230556,94.107175,76.522011)"
       style="fill:#ffffff">
      <path
         inkscape:connector-curvature="0"
         id="path4195"
         d="m 355.24568,485.5621 c -0.94538,-1.04464 -0.93865,-1.54157 0.19587,-14.46421 0.64617,-7.36033 1.17069,-16.988 1.16557,-21.39484 l -0.009,-8.01241 -1.63031,1.16088 c -2.93464,2.08964 -4.08852,6.33336 -2.70882,9.96229 1.04037,2.73635 -1.16801,5.25579 -3.47513,3.96465 -2.47372,-1.38435 -3.31243,-9.06907 -1.43209,-13.12167 4.8612,-10.47715 22.78415,-11.1719 28.96681,-1.12281 1.45475,2.36448 1.63503,3.12032 1.61215,6.75898 -0.0285,4.53952 -0.91839,6.98742 -2.78666,7.66569 -0.83439,0.30292 -1.54507,0.14473 -2.37689,-0.52876 -1.14137,-0.92421 -1.16081,-1.0978 -0.5095,-4.54962 0.62646,-3.32003 0.59274,-3.76316 -0.45038,-5.91793 -0.62014,-1.28104 -1.86267,-2.76342 -2.76116,-3.29418 l -1.63366,-0.96502 -0.002,8.54689 c -5.4e-4,4.70078 0.51354,14.33694 1.14286,21.41368 1.0949,12.31231 1.103,12.91234 0.18792,13.9235 -1.18034,1.30425 -1.96335,1.32946 -3.42778,0.11048 -1.02188,-0.85064 -1.22721,-2.03908 -2.03203,-11.76062 -0.49241,-5.9479 -1.05496,-10.99769 -1.2501,-11.22174 -0.19515,-0.22408 -0.7747,4.64239 -1.28791,10.81436 -0.83681,10.06376 -1.04926,11.31938 -2.05871,12.168 -1.45664,1.22453 -2.23632,1.19382 -3.43937,-0.13553 z"
         style="fill:#ffffff" />
      <path
         inkscape:connector-curvature="0"
         id="path4185"
         d="m 358.88237,433.10991 c -3.36923,-2.05423 -3.81875,-6.14175 -0.98685,-8.97366 1.50715,-1.50714 2.24769,-1.83844 4.10946,-1.83844 1.86178,0 2.60232,0.3313 4.10946,1.83844 2.07077,2.07075 2.38602,4.18571 1.01821,6.83075 -0.90378,1.74771 -3.30696,3.22773 -5.23599,3.2246 -0.6839,-8.3e-4 -2.04033,-0.48787 -3.01429,-1.08169 z"
         style="fill:#ffffff" />
    </g>
  </g>
</svg>
