<?xml version="1.0" encoding="UTF-8" standalone="no"?>
<!-- Created with Inkscape (http://www.inkscape.org/) -->

<svg
   xmlns:dc="http://purl.org/dc/elements/1.1/"
   xmlns:cc="http://creativecommons.org/ns#"
   xmlns:rdf="http://www.w3.org/1999/02/22-rdf-syntax-ns#"
   xmlns:svg="http://www.w3.org/2000/svg"
   xmlns="http://www.w3.org/2000/svg"
   xmlns:sodipodi="http://sodipodi.sourceforge.net/DTD/sodipodi-0.dtd"
   xmlns:inkscape="http://www.inkscape.org/namespaces/inkscape"
   width="18.062222mm"
   height="18.062222mm"
   viewBox="0 0 63.999998 63.999997"
   id="svg2"
   version="1.1"
   inkscape:version="0.91 r13725"
   sodipodi:docname="_sdraiato.svg">
  <defs
     id="defs4" />
  <sodipodi:namedview
     id="base"
     pagecolor="#ffffff"
     bordercolor="#666666"
     borderopacity="1.0"
     inkscape:pageopacity="0.0"
     inkscape:pageshadow="2"
     inkscape:zoom="1.2541133"
     inkscape:cx="-102.50312"
     inkscape:cy="75.391908"
     inkscape:document-units="px"
     inkscape:current-layer="layer1"
     showgrid="false"
     fit-margin-top="0"
     fit-margin-left="0"
     fit-margin-right="0"
     fit-margin-bottom="0"
     inkscape:window-width="1457"
     inkscape:window-height="751"
     inkscape:window-x="30"
     inkscape:window-y="191"
     inkscape:window-maximized="0" />
  <metadata
     id="metadata7">
    <rdf:RDF>
      <cc:Work
         rdf:about="">
        <dc:format>image/svg+xml</dc:format>
        <dc:type
           rdf:resource="http://purl.org/dc/dcmitype/StillImage" />
        <dc:title></dc:title>
      </cc:Work>
    </rdf:RDF>
  </metadata>
  <g
     inkscape:label="Livello 1"
     inkscape:groupmode="layer"
     id="layer1"
     transform="translate(-374.37338,-436.39124)">
    <path
       style="fill:#ffffff"
       d="m 425.22453,483.01973 c -0.50711,-0.11952 -0.83655,-0.30392 -5.6142,-3.14246 -2.52541,-1.50043 -4.47988,-2.60803 -4.5387,-2.57208 -0.0568,0.0347 -1.81344,1.19233 -3.90361,2.57247 -4.13549,2.73065 -4.37822,2.85652 -5.93016,3.07513 -1.02245,0.14401 -2.0259,0.002 -3.32548,-0.47177 -0.55281,-0.20139 -1.01583,-0.37513 -1.02892,-0.3861 -0.0131,-0.011 0.04,-0.26904 0.118,-0.57348 0.21916,-0.85547 0.0174,-1.66721 -0.58505,-2.35331 -0.58165,-0.66247 -0.85762,-0.73969 -4.25854,-1.19169 -2.97621,-0.39555 -3.09311,-0.4184 -3.40302,-0.66527 l -0.32093,-0.25564 1.01805,-2.73196 c 1.12748,-3.0256 1.22896,-3.47575 0.96366,-4.2745 -0.20161,-0.60699 -0.807,-1.26891 -1.40397,-1.53506 -0.67517,-0.30102 -1.54968,-0.28836 -2.1717,0.0315 -0.78129,0.4017 -1.10454,0.86737 -1.6866,2.42974 -0.29735,0.79813 -0.54092,1.33324 -0.57641,1.26631 -0.16512,-0.31151 -0.29274,-1.17993 -0.28512,-1.9403 0.018,-1.80157 0.83199,-3.29089 2.14652,-3.92749 0.32441,-0.15711 0.6123,-0.20758 1.34703,-0.23618 1.57188,-0.0612 2.70176,0.35268 4.23499,1.55121 2.77367,2.16821 5.75449,4.28156 7.28974,5.1683 1.52219,0.8792 3.68356,1.85189 3.95514,1.77994 0.0762,-0.0202 1.54024,-0.95969 3.25338,-2.08777 1.71313,-1.12807 3.30641,-2.11538 3.54062,-2.19402 0.55748,-0.18719 1.50513,-0.17808 2.066,0.0198 0.62324,0.21996 11.67238,6.81037 12.08591,7.20881 0.18629,0.17948 0.46662,0.58579 0.62296,0.90292 0.25662,0.52049 0.28413,0.6547 0.28287,1.37941 -10e-4,0.67498 -0.038,0.88141 -0.23148,1.29634 -0.65786,1.41112 -2.21088,2.19896 -3.66098,1.8572 z m -32.21063,-0.74275 c -2.62821,-0.35635 -4.90873,-0.70183 -5.06783,-0.76772 -0.74805,-0.30986 -1.25835,-1.06143 -1.26539,-1.86368 -0.004,-0.42105 0.2239,-1.10524 1.6282,-4.89467 1.71354,-4.6239 1.90527,-5.08534 2.24402,-5.40087 1.00206,-0.93335 2.66629,-0.61048 3.24355,0.62927 0.37501,0.80539 0.3413,0.96055 -0.99174,4.56509 -0.66304,1.79284 -1.17364,3.28813 -1.13467,3.32285 0.039,0.0347 1.69275,0.27236 3.6751,0.52807 3.02136,0.38974 3.67838,0.5 4.06259,0.68181 1.43231,0.67774 1.54342,2.6771 0.19826,3.56759 -0.60428,0.40003 -1.15692,0.3692 -6.59209,-0.36774 z m -4.52131,-17.02055 c -1.11554,-0.18483 -2.31675,-0.81719 -3.16656,-1.667 -0.71208,-0.71209 -1.17234,-1.47744 -1.47611,-2.45461 -0.31115,-1.00088 -0.2905,-2.44437 0.049,-3.42542 0.45189,-1.30583 1.21548,-2.32203 2.26282,-3.01143 2.05524,-1.35283 4.47537,-1.35283 6.53061,0 1.04734,0.6894 1.81093,1.7056 2.26282,3.01143 0.33949,0.98105 0.36014,2.42454 0.049,3.42542 -0.314,1.01003 -0.75999,1.74176 -1.51942,2.4929 -1.13057,1.11821 -2.55602,1.70065 -4.1022,1.67615 -0.36709,-0.006 -0.76757,-0.0272 -0.88994,-0.0474 z"
       id="path4348"
       inkscape:connector-curvature="0" />
  </g>
</svg>
