<?xml version="1.0" encoding="UTF-8" standalone="no"?>
<!-- Created with Inkscape (http://www.inkscape.org/) -->

<svg
   xmlns:dc="http://purl.org/dc/elements/1.1/"
   xmlns:cc="http://creativecommons.org/ns#"
   xmlns:rdf="http://www.w3.org/1999/02/22-rdf-syntax-ns#"
   xmlns:svg="http://www.w3.org/2000/svg"
   xmlns="http://www.w3.org/2000/svg"
   xmlns:sodipodi="http://sodipodi.sourceforge.net/DTD/sodipodi-0.dtd"
   xmlns:inkscape="http://www.inkscape.org/namespaces/inkscape"
   width="18.062222mm"
   height="18.062222mm"
   viewBox="0 0 63.999998 63.999997"
   id="svg2"
   version="1.1"
   inkscape:version="0.91 r13725"
   sodipodi:docname="_seduto.svg">
  <defs
     id="defs4" />
  <sodipodi:namedview
     id="base"
     pagecolor="#ffffff"
     bordercolor="#666666"
     borderopacity="1.0"
     inkscape:pageopacity="0.0"
     inkscape:pageshadow="2"
     inkscape:zoom="1.8059231"
     inkscape:cx="-141.77446"
     inkscape:cy="84.102875"
     inkscape:document-units="px"
     inkscape:current-layer="layer1"
     showgrid="false"
     fit-margin-top="0"
     fit-margin-left="0"
     fit-margin-right="0"
     fit-margin-bottom="0"
     inkscape:window-width="1920"
     inkscape:window-height="1137"
     inkscape:window-x="-8"
     inkscape:window-y="-8"
     inkscape:window-maximized="1" />
  <metadata
     id="metadata7">
    <rdf:RDF>
      <cc:Work
         rdf:about="">
        <dc:format>image/svg+xml</dc:format>
        <dc:type
           rdf:resource="http://purl.org/dc/dcmitype/StillImage" />
        <dc:title></dc:title>
      </cc:Work>
    </rdf:RDF>
  </metadata>
  <g
     inkscape:label="Livello 1"
     inkscape:groupmode="layer"
     id="layer1"
     transform="translate(-374.37338,-436.39124)">
    <g
       id="g4329"
       transform="matrix(0.82879548,0,0,0.82879548,69.781815,79.779917)"
       style="fill:#ffffff">
      <path
         inkscape:connector-curvature="0"
         id="path4201"
         d="m 390.97906,490.43615 c -3.67633,-0.25622 -4.74849,-0.53354 -5.37341,-1.38989 -2.1621,-2.96269 -1.10272,-3.60959 12.30836,-7.51591 2.33915,-0.68133 2.34225,-0.68577 2.34225,-3.35059 l 0,-2.66836 -2.08858,2.0667 c -2.95364,2.92267 -11.96786,7.48702 -13.33805,6.75373 -1.32329,-0.70822 -1.87,-2.43454 -1.17955,-3.72465 0.29674,-0.55448 2.74984,-2.22226 5.45132,-3.70619 4.72757,-2.59686 5.04433,-2.89487 8.44667,-7.94647 4.66686,-6.92915 5.59043,-7.77221 8.51436,-7.77221 3.02844,0 3.85253,0.73049 8.38407,7.43182 3.51917,5.20421 3.96377,5.63796 8.19124,7.99123 2.45857,1.36857 4.8766,2.82869 5.37341,3.24469 1.34371,1.12517 1.11931,3.21009 -0.45666,4.24267 -1.3163,0.86249 -1.54807,0.78774 -7.22182,-2.32953 -4.02269,-2.21016 -6.27618,-3.82275 -7.18238,-5.13971 l -1.32052,-1.91906 0,3.07386 0,3.07387 6.7512,2.01599 c 4.41947,1.31969 7.08433,2.41712 7.71567,3.17742 1.1665,1.40476 1.18053,1.63541 0.18261,3.00009 -0.63726,0.8715 -1.73258,1.13614 -5.92453,1.43135 -6.13223,0.43188 -23.12998,0.4084 -29.57572,-0.0408 z"
         style="fill:#ffffff" />
      <path
         inkscape:connector-curvature="0"
         id="path4193"
         d="m 402.69239,458.48983 c -3.36673,-2.05301 -3.81573,-6.55404 -0.952,-9.54312 4.22433,-4.40925 11.28186,-0.83408 10.45951,5.29852 -0.60757,4.53078 -5.4748,6.70375 -9.50751,4.2446 z"
         style="fill:#ffffff" />
    </g>
  </g>
</svg>
