<?xml version="1.0" encoding="UTF-8" standalone="no"?>
<!-- Created with Inkscape (http://www.inkscape.org/) -->

<svg
   xmlns:dc="http://purl.org/dc/elements/1.1/"
   xmlns:cc="http://creativecommons.org/ns#"
   xmlns:rdf="http://www.w3.org/1999/02/22-rdf-syntax-ns#"
   xmlns:svg="http://www.w3.org/2000/svg"
   xmlns="http://www.w3.org/2000/svg"
   xmlns:sodipodi="http://sodipodi.sourceforge.net/DTD/sodipodi-0.dtd"
   xmlns:inkscape="http://www.inkscape.org/namespaces/inkscape"
   width="18.062222mm"
   height="18.062222mm"
   viewBox="0 0 63.999998 63.999997"
   id="svg2"
   version="1.1"
   inkscape:version="0.91 r13725"
   sodipodi:docname="c_parataA.svg">
  <defs
     id="defs4">
    <inkscape:path-effect
       effect="spiro"
       id="path-effect4352"
       is_visible="true" />
  </defs>
  <sodipodi:namedview
     id="base"
     pagecolor="#ffffff"
     bordercolor="#666666"
     borderopacity="1.0"
     inkscape:pageopacity="0.0"
     inkscape:pageshadow="2"
     inkscape:zoom="4.4937146"
     inkscape:cx="5.2071743"
     inkscape:cy="22.06415"
     inkscape:document-units="px"
     inkscape:current-layer="layer1"
     showgrid="false"
     fit-margin-top="0"
     fit-margin-left="0"
     fit-margin-right="0"
     fit-margin-bottom="0"
     inkscape:window-width="1457"
     inkscape:window-height="751"
     inkscape:window-x="164"
     inkscape:window-y="154"
     inkscape:window-maximized="0" />
  <metadata
     id="metadata7">
    <rdf:RDF>
      <cc:Work
         rdf:about="">
        <dc:format>image/svg+xml</dc:format>
        <dc:type
           rdf:resource="http://purl.org/dc/dcmitype/StillImage" />
        <dc:title></dc:title>
      </cc:Work>
    </rdf:RDF>
  </metadata>
  <g
     inkscape:label="Livello 1"
     inkscape:groupmode="layer"
     id="layer1"
     transform="translate(-374.37338,-436.39124)">
    <g
       id="g4438"
       transform="matrix(1.046045,0,0,1.046045,-18.94163,-21.73577)"
       style="fill:#ffffff">
      <path
         inkscape:connector-curvature="0"
         id="path4433"
         d="m 407.64801,484.61403 0.0962,0.12886 c 0.18761,0.2521 0.84508,0.79646 1.20177,0.99539 0.46353,0.25853 1.08401,0.38685 1.47586,0.30524 0.26418,-0.055 0.46955,-0.18302 1.46941,-0.91442 l 0.3997,-0.29253 c 0.014,-0.0101 0.0224,-0.0148 0.0375,-0.0258 -7e-5,-4.5e-4 9e-5,-4.5e-4 1.9e-4,-10e-4 l 0.72483,-0.53039 0.33849,0.0837 c 0.76023,0.18762 2.00265,0.9933 2.9621,1.92116 0.43694,0.42255 1.55619,1.70781 1.93232,2.21877 0.16645,0.22623 0.18798,0.32239 0.15191,0.6849 -0.13878,1.39486 0.5808,2.67671 1.83366,3.26601 0.74032,0.34822 1.88163,0.35133 2.61501,0.008 0.1696,-0.0795 0.32806,-0.1713 0.47645,-0.27273 0.0346,-0.0237 0.0689,-0.0478 0.10222,-0.0727 0.0336,-0.0243 0.0668,-0.0496 0.0997,-0.0753 0.14135,-0.11104 0.27654,-0.23455 0.40337,-0.3724 0.54841,-0.59608 0.88859,-1.68551 0.77906,-2.49628 -0.18534,-1.37207 -1.19153,-2.44376 -2.56358,-2.73078 -0.35657,-0.0746 -0.44189,-0.12399 -0.60754,-0.3508 -0.37411,-0.51244 -1.26351,-1.96625 -1.53514,-2.51001 -0.59646,-1.19404 -0.99131,-2.6212 -0.94168,-3.40266 l 0.022,-0.34799 0.72378,-0.53183 c 4.5e-4,2.2e-4 4.5e-4,10e-5 0.001,1.9e-4 0.0151,-0.0111 0.0221,-0.0178 0.0359,-0.028 l 0.39917,-0.29325 c 0.23124,-0.16986 0.41003,-0.30287 0.56316,-0.41929 0.0394,-0.0245 0.0866,-0.0568 0.14755,-0.1013 0.10202,-0.0743 0.17163,-0.13506 0.2092,-0.17987 0.22296,-0.18567 0.32255,-0.29854 0.39399,-0.42604 0.19565,-0.34917 0.25982,-0.97953 0.15262,-1.49934 -0.0825,-0.4 -0.40414,-1.1906 -0.58801,-1.44545 l -0.094,-0.13043 -6.70948,4.91984 -6.7091,4.91957 z"
         style="fill:#ffffff" />
      <path
         sodipodi:nodetypes="ccccccccccccccccc"
         inkscape:connector-curvature="0"
         id="path4377"
         d="m 410.99306,481.24836 -22.57444,-27.10643 0.003,-1.79684 0.002,-2.47095 0.006,-1.99867 0.007,-2.39696 0.0256,-1.09074 1.72006,0.50872 7.12428,2.23849 0.37808,0.13027 19.15512,29.71277 -2.09684,1.59055 -19.27139,-24.70358 -0.29042,-0.33333 17.89044,26.13471 -2.07828,1.58211 z"
         style="fill:#ffffff" />
    </g>
  </g>
</svg>
