<?xml version="1.0" encoding="UTF-8" standalone="no"?>
<!-- Created with Inkscape (http://www.inkscape.org/) -->

<svg
   xmlns:dc="http://purl.org/dc/elements/1.1/"
   xmlns:cc="http://creativecommons.org/ns#"
   xmlns:rdf="http://www.w3.org/1999/02/22-rdf-syntax-ns#"
   xmlns:svg="http://www.w3.org/2000/svg"
   xmlns="http://www.w3.org/2000/svg"
   xmlns:sodipodi="http://sodipodi.sourceforge.net/DTD/sodipodi-0.dtd"
   xmlns:inkscape="http://www.inkscape.org/namespaces/inkscape"
   width="35.799778mm"
   height="30.950186mm"
   viewBox="0 0 126.84961 109.666"
   id="svg2"
   version="1.1"
   inkscape:version="0.91 r13725"
   sodipodi:docname="triang_est.svg">
  <defs
     id="defs4" />
  <sodipodi:namedview
     id="base"
     pagecolor="#ffffff"
     bordercolor="#666666"
     borderopacity="1.0"
     inkscape:pageopacity="0.0"
     inkscape:pageshadow="2"
     inkscape:zoom="5.3924576"
     inkscape:cx="60.917103"
     inkscape:cy="51.784842"
     inkscape:document-units="px"
     inkscape:current-layer="layer1"
     showgrid="false"
     fit-margin-top="0"
     fit-margin-left="0"
     fit-margin-right="0"
     fit-margin-bottom="0"
     inkscape:window-width="1512"
     inkscape:window-height="911"
     inkscape:window-x="282"
     inkscape:window-y="212"
     inkscape:window-maximized="0" />
  <metadata
     id="metadata7">
    <rdf:RDF>
      <cc:Work
         rdf:about="">
        <dc:format>image/svg+xml</dc:format>
        <dc:type
           rdf:resource="http://purl.org/dc/dcmitype/StillImage" />
        <dc:title></dc:title>
      </cc:Work>
    </rdf:RDF>
  </metadata>
  <g
     inkscape:label="Livello 1"
     inkscape:groupmode="layer"
     id="layer1"
     transform="translate(-252.27565,-285.48694)">
    <path
       style="opacity:1;fill:#000000;fill-opacity:1;fill-rule:evenodd;stroke:none;stroke-width:1px;stroke-linecap:butt;stroke-linejoin:miter;stroke-opacity:1"
       d="m 236.77148,157.76758 -63.13867,109.66601 126.84961,0 -31.84961,-54.82226 -5.46679,9.41015 20.44921,34.71485 -27.74023,0 0.043,-0.0742 -0.41992,0 7.40625,-12.86719 -6.20313,-10.64453 -6.96875,11.99609 0.0664,0 -6.76172,11.58985 -0.0371,0 -6.15039,10.58789 -6.0957,-10.58789 -41.125,0 13.24218,-23.80664 1.47461,2.52734 0.83789,-1.45508 6.47461,11.14453 12.42383,0 -7.35937,-12.7832 -0.59961,1.00781 -6.45703,-11.12695 0.62304,-1.05469 -4.99023,-8.66797 10.10937,0 20.89063,-35.3789 13.99609,23.37109 -1.35547,0.006 0.74414,1.28125 -14.80859,0 -6.36719,10.7207 16.17578,0 -0.67578,-1.1582 12.86328,-0.0293 0.69922,1.1875 11.00977,0 -31.8086,-54.7539 z"
       transform="translate(78.642845,127.71934)"
       id="path4164"
       inkscape:connector-curvature="0" />
  </g>
</svg>
