<?xml version="1.0" encoding="UTF-8" standalone="no"?>
<!-- Created with Inkscape (http://www.inkscape.org/) -->

<svg
   xmlns:dc="http://purl.org/dc/elements/1.1/"
   xmlns:cc="http://creativecommons.org/ns#"
   xmlns:rdf="http://www.w3.org/1999/02/22-rdf-syntax-ns#"
   xmlns:svg="http://www.w3.org/2000/svg"
   xmlns="http://www.w3.org/2000/svg"
   xmlns:sodipodi="http://sodipodi.sourceforge.net/DTD/sodipodi-0.dtd"
   xmlns:inkscape="http://www.inkscape.org/namespaces/inkscape"
   width="18.062223mm"
   height="18.062223mm"
   viewBox="0 0 64.000005 64.000004"
   id="svg2"
   version="1.1"
   inkscape:version="0.91 r13725"
   sodipodi:docname="2_marcia.svg">
  <defs
     id="defs4" />
  <sodipodi:namedview
     id="base"
     pagecolor="#ffffff"
     bordercolor="#666666"
     borderopacity="1.0"
     inkscape:pageopacity="0.0"
     inkscape:pageshadow="2"
     inkscape:zoom="2.1671077"
     inkscape:cx="-67.651382"
     inkscape:cy="40.507146"
     inkscape:document-units="px"
     inkscape:current-layer="layer1"
     showgrid="false"
     fit-margin-top="0"
     fit-margin-left="0"
     fit-margin-right="0"
     fit-margin-bottom="0"
     inkscape:window-width="1920"
     inkscape:window-height="1137"
     inkscape:window-x="-8"
     inkscape:window-y="-8"
     inkscape:window-maximized="1" />
  <metadata
     id="metadata7">
    <rdf:RDF>
      <cc:Work
         rdf:about="">
        <dc:format>image/svg+xml</dc:format>
        <dc:type
           rdf:resource="http://purl.org/dc/dcmitype/StillImage" />
        <dc:title></dc:title>
      </cc:Work>
    </rdf:RDF>
  </metadata>
  <g
     inkscape:label="Livello 1"
     inkscape:groupmode="layer"
     id="layer1"
     transform="translate(-225.89932,-436.39124)">
    <g
       id="g4313"
       transform="translate(87.652752,90.090356)"
       style="fill:#ffffff">
      <path
         inkscape:connector-curvature="0"
         id="path4163"
         d="m 155.85635,405.24114 c -0.78359,-0.78358 -1.06742,-1.46415 -0.85314,-2.04559 0.1766,-0.47924 2.23751,-2.98927 4.57977,-5.57786 l 4.25866,-4.70651 0.005,-5.66925 c 0.001,-3.11809 0.33396,-8.46855 0.73676,-11.88992 0.40279,-3.42135 0.63156,-6.32144 0.50837,-6.44464 -0.1232,-0.1232 -0.83476,-0.0178 -1.58128,0.23428 0,0 -0.84125,0.30047 -1.2375,1.17708 -0.39625,0.8766 -0.4566,4.77989 -0.4566,4.77989 0,0 0.2247,4.32489 0.17887,4.64733 -0.12486,0.87739 -1.71785,1.57244 -2.8972,1.26403 -1.51862,-0.39712 -2.06644,-3.10592 -1.90736,-9.43146 0,0 -0.004,-3.62282 1.12494,-5.18999 1.12925,-1.56716 4.95251,-2.78408 4.95251,-2.78408 0,0 8.49548,-2.22324 10.39385,-0.0986 0,0 1.1221,0.72084 1.13754,1.99409 0.0154,1.27326 -0.0619,4.39354 -0.0619,4.39354 l -0.33147,4.81283 1.4603,-0.29207 c 0.80316,-0.1607 2.83696,-0.43309 4.51955,-0.60547 3.2793,-0.33599 4.69044,0.31799 4.69044,2.17369 0,1.52017 -1.60142,2.32275 -5.79112,2.90231 -5.12979,0.7096 -5.79113,0.90548 -5.79113,1.71529 0,0.40027 2.05005,1.33458 5.31667,2.42306 5.57404,1.85734 6.7482,2.58128 6.7482,4.16069 0,0.55287 -2.31335,3.4448 -5.47359,6.8425 -4.47086,4.8068 -5.71991,5.88489 -6.8181,5.88489 -0.81124,0 -1.59988,-0.38461 -1.98836,-0.96969 -0.85358,-1.28554 -0.39215,-2.07716 4.03461,-6.92202 l 3.50847,-3.83986 -5.0769,-1.70009 -5.07693,-1.70006 0,5.02246 0,5.02242 -4.87783,5.43899 c -2.68281,2.99144 -5.30114,5.59941 -5.8185,5.79551 -0.67154,0.25452 -1.2766,0.0206 -2.11492,-0.81776 z"
         style="fill:#ffffff"
         sodipodi:nodetypes="ccsccscczccsszcczcccsssssssssscccccsccc" />
      <path
         inkscape:connector-curvature="0"
         id="path4147"
         d="m 169.63276,359.99915 c -4.46602,-3.01906 -2.67662,-9.5538 2.61612,-9.5538 3.84516,0 6.37166,3.48576 4.95446,6.83557 -1.48545,3.5112 -4.69358,4.66309 -7.57058,2.71823 z"
         style="fill:#ffffff" />
    </g>
  </g>
</svg>
