<?xml version="1.0" encoding="UTF-8" standalone="no"?>
<!-- Created with Inkscape (http://www.inkscape.org/) -->

<svg
   xmlns:dc="http://purl.org/dc/elements/1.1/"
   xmlns:cc="http://creativecommons.org/ns#"
   xmlns:rdf="http://www.w3.org/1999/02/22-rdf-syntax-ns#"
   xmlns:svg="http://www.w3.org/2000/svg"
   xmlns="http://www.w3.org/2000/svg"
   xmlns:sodipodi="http://sodipodi.sourceforge.net/DTD/sodipodi-0.dtd"
   xmlns:inkscape="http://www.inkscape.org/namespaces/inkscape"
   width="18.062222mm"
   height="18.062222mm"
   viewBox="0 0 63.999998 63.999997"
   id="svg2"
   version="1.1"
   inkscape:version="0.91 r13725"
   sodipodi:docname="__morto.svg">
  <defs
     id="defs4">
    <inkscape:path-effect
       effect="spiro"
       id="path-effect4352"
       is_visible="true" />
  </defs>
  <sodipodi:namedview
     id="base"
     pagecolor="#ffffff"
     bordercolor="#666666"
     borderopacity="1.0"
     inkscape:pageopacity="0.0"
     inkscape:pageshadow="2"
     inkscape:zoom="2.1671077"
     inkscape:cx="82.429169"
     inkscape:cy="70.716371"
     inkscape:document-units="px"
     inkscape:current-layer="layer1"
     showgrid="false"
     fit-margin-top="0"
     fit-margin-left="0"
     fit-margin-right="0"
     fit-margin-bottom="0"
     inkscape:window-width="1457"
     inkscape:window-height="751"
     inkscape:window-x="364"
     inkscape:window-y="350"
     inkscape:window-maximized="0" />
  <metadata
     id="metadata7">
    <rdf:RDF>
      <cc:Work
         rdf:about="">
        <dc:format>image/svg+xml</dc:format>
        <dc:type
           rdf:resource="http://purl.org/dc/dcmitype/StillImage" />
        <dc:title></dc:title>
      </cc:Work>
    </rdf:RDF>
  </metadata>
  <g
     inkscape:label="Livello 1"
     inkscape:groupmode="layer"
     id="layer1"
     transform="translate(-374.37338,-436.39124)">
    <path
       style="fill:#ffffff"
       d="m 406.38744,440.30936 c -1.65836,-2.3e-4 -3.30502,0.15693 -4.82541,0.46725 -10.76692,2.1976 -17.80934,12.65867 -19.2329,28.56984 -0.10422,1.16481 -0.17325,2.53473 -0.15338,3.04443 l 0.036,0.92695 1.55845,0.5125 c 5.95225,1.95714 9.24439,4.5007 10.40512,8.03955 0.38772,1.1821 0.50222,3.48718 0.24514,4.93479 l -0.16217,0.91479 0.36206,0.11775 c 1.144,0.37297 4.36398,0.86812 6.86536,1.0556 1.93061,0.1447 5.86625,0.14781 7.84135,0.007 3.05231,-0.21872 6.65168,-0.83013 7.86228,-1.33595 l 0.39811,-0.16678 -0.0901,-0.63488 c -0.33612,-2.36517 0.25647,-5.05846 1.49644,-6.8025 1.77487,-2.49639 4.86758,-4.41951 9.68853,-6.02474 l 1.89203,-0.62983 -0.0252,-1.45244 c -0.0767,-4.49169 -1.05063,-9.87079 -2.58766,-14.28891 -2.48783,-7.15118 -6.66708,-12.46246 -11.84959,-15.05955 l -0.86409,-0.43288 -1.14611,0.3101 c -5.27826,1.42797 -9.79053,3.78114 -13.26474,6.91816 -0.80267,0.72477 -2.37168,2.44461 -2.45691,2.69285 -0.0172,0.0503 0.24884,0.18849 0.59129,0.30716 0.8127,0.28163 2.8431,1.26523 4.11092,1.99135 1.36653,0.78267 4.13959,2.61168 4.1063,2.70835 -0.0149,0.0431 -0.5856,0.51596 -1.26847,1.05099 -1.60766,1.25958 -4.57966,4.23685 -6.24349,6.2548 l -1.31164,1.59072 0.49616,0.41068 c 2.23609,1.85215 3.73854,4.08069 3.74508,5.55456 0.004,0.84081 -0.26047,1.35375 -0.92317,1.7927 -0.99926,0.66189 -2.39733,0.94341 -4.69047,0.94372 -4.72194,6.4e-4 -8.88994,-1.81637 -10.15411,-4.42647 -0.48536,-1.00214 -0.5594,-2.31024 -0.19861,-3.51042 0.48147,-1.60175 1.47205,-3.07349 2.38105,-3.53723 1.47075,-0.75032 3.85502,-0.40253 6.46349,0.94245 l 1.09583,0.56489 0.67301,-0.83979 c 1.79444,-2.23944 3.90777,-4.52335 5.50804,-5.95266 l 0.80249,-0.71658 -1.33469,-0.77483 c -2.2516,-1.30717 -4.15179,-2.13608 -6.28204,-2.74062 -0.62812,-0.17825 -1.14119,-0.35694 -1.14024,-0.39683 0.006,-0.24419 2.30901,-3.23478 3.308,-4.29531 2.96072,-3.14308 7.21512,-5.84116 11.82571,-7.50023 0.61783,-0.22232 1.2032,-0.43484 1.30075,-0.47186 0.31961,-0.12127 -0.32216,-0.27817 -1.88114,-0.46053 -0.97842,-0.11446 -1.97775,-0.17126 -2.97277,-0.1714 z m 14.9862,22.4282 c 1.06699,0.0218 1.96361,0.34896 2.61658,0.99316 0.52318,0.51614 1.26645,1.8688 1.57397,2.86423 0.34921,1.13039 0.2799,2.57456 -0.17056,3.55525 -0.84655,1.84304 -3.28151,3.34966 -6.6441,4.11051 -1.20082,0.2717 -4.86437,0.40594 -5.91201,0.21665 -1.47761,-0.267 -2.57412,-0.83918 -3.02474,-1.57817 -1.0234,-1.67836 1.29156,-5.17687 5.14682,-7.77764 2.38434,-1.60847 4.63574,-2.42042 6.41404,-2.38399 z m -15.43207,12.215 c 0.98176,0 2.92745,3.80804 3.57704,7.00113 0.52841,2.59747 0.0699,3.03669 -3.2439,3.10981 -0.94301,0.0209 -1.87418,0.0133 -2.06929,-0.0168 -0.82555,-0.12714 -1.59492,-0.41546 -1.76798,-0.66253 -0.96942,-1.38404 2.02047,-9.43165 3.50413,-9.43165 z m 12.14125,14.70251 -0.9567,0.27742 c -0.52628,0.15242 -1.49266,0.38615 -2.14766,0.51962 -0.65499,0.13348 -1.21425,0.26593 -1.24249,0.29418 -0.0283,0.0283 0.10051,1.32817 0.28622,2.88895 l 0.33775,2.83784 3.16931,0 3.1693,0 -0.27951,-0.73879 c -0.15393,-0.40647 -0.74245,-1.94053 -1.30787,-3.40901 l -1.02835,-2.67021 z m -24.48407,0.26107 c -0.0516,-2.2e-4 -0.086,0.006 -0.0976,0.0184 -0.0468,0.0519 -0.56652,1.5442 -1.15492,3.31641 l -1.06985,3.2221 2.80473,0 2.80431,0 0.3231,-2.74899 c 0.17761,-1.51207 0.32156,-2.80948 0.31972,-2.88309 -0.002,-0.0756 -0.50531,-0.224 -1.15658,-0.34111 -0.63408,-0.11403 -1.52014,-0.30903 -1.96914,-0.4333 -0.33674,-0.0932 -0.64886,-0.14979 -0.80374,-0.15045 z m 17.85463,1.06566 c -0.0192,-0.0131 -0.51385,0.0152 -1.09918,0.0628 -0.58531,0.0478 -1.57838,0.0916 -2.20716,0.0972 -0.62876,0.006 -1.22762,0.0427 -1.33049,0.0822 -0.16268,0.0624 -0.1869,0.40905 -0.1869,2.66057 l 0,2.5885 2.77582,0 2.7758,0 -0.0582,-0.32519 c -0.0318,-0.17884 -0.18754,-1.4091 -0.34614,-2.73391 -0.15861,-1.3248 -0.30426,-2.41919 -0.32351,-2.43219 z m -11.66143,0.044 -0.0645,0.32937 c -0.0354,0.18104 -0.17403,1.26013 -0.30801,2.39825 -0.13397,1.13811 -0.26776,2.21562 -0.29753,2.39447 l -0.054,0.32519 2.65763,0 2.65764,0 0,-2.59897 0,-2.5994 -0.2661,-0.0541 c -0.14632,-0.0297 -1.17937,-0.0858 -2.29558,-0.12446 l -2.02947,-0.0704 z"
       id="path4194"
       inkscape:connector-curvature="0" />
  </g>
</svg>
