<?xml version="1.0" encoding="UTF-8" standalone="no"?>
<!-- Created with Inkscape (http://www.inkscape.org/) -->

<svg
   xmlns:dc="http://purl.org/dc/elements/1.1/"
   xmlns:cc="http://creativecommons.org/ns#"
   xmlns:rdf="http://www.w3.org/1999/02/22-rdf-syntax-ns#"
   xmlns:svg="http://www.w3.org/2000/svg"
   xmlns="http://www.w3.org/2000/svg"
   xmlns:sodipodi="http://sodipodi.sourceforge.net/DTD/sodipodi-0.dtd"
   xmlns:inkscape="http://www.inkscape.org/namespaces/inkscape"
   width="18.062222mm"
   height="18.062222mm"
   viewBox="0 0 63.999998 63.999997"
   id="svg2"
   version="1.1"
   inkscape:version="0.91 r13725"
   sodipodi:docname="_atteggiamento.svg">
  <defs
     id="defs4">
    <inkscape:path-effect
       effect="spiro"
       id="path-effect4352"
       is_visible="true" />
  </defs>
  <sodipodi:namedview
     id="base"
     pagecolor="#ffffff"
     bordercolor="#666666"
     borderopacity="1.0"
     inkscape:pageopacity="0.0"
     inkscape:pageshadow="2"
     inkscape:zoom="4.4937146"
     inkscape:cx="27.430808"
     inkscape:cy="30.97289"
     inkscape:document-units="px"
     inkscape:current-layer="layer1"
     showgrid="false"
     fit-margin-top="0"
     fit-margin-left="0"
     fit-margin-right="0"
     fit-margin-bottom="0"
     inkscape:window-width="1457"
     inkscape:window-height="751"
     inkscape:window-x="266"
     inkscape:window-y="235"
     inkscape:window-maximized="0" />
  <metadata
     id="metadata7">
    <rdf:RDF>
      <cc:Work
         rdf:about="">
        <dc:format>image/svg+xml</dc:format>
        <dc:type
           rdf:resource="http://purl.org/dc/dcmitype/StillImage" />
        <dc:title></dc:title>
      </cc:Work>
    </rdf:RDF>
  </metadata>
  <g
     inkscape:label="Livello 1"
     inkscape:groupmode="layer"
     id="layer1"
     transform="translate(-374.37338,-436.39124)">
    <path
       style="fill:#ffffff"
       d="m 388.96821,439.96167 c -0.0245,0 0.035,0.20336 0.13221,0.45191 0.5689,1.45397 6.43967,18.03606 6.39969,18.07605 -0.0266,0.0266 -2.95876,-0.42099 -6.51638,-0.9949 -3.55763,-0.5739 -6.48544,-1.02521 -6.50627,-1.00298 -0.0208,0.0222 1.85391,1.83006 4.16641,4.01735 2.31249,2.18728 4.2051,4.01069 4.20554,4.05174 8.2e-4,0.0914 -0.14874,0.15599 -6.50694,2.81741 -2.81696,1.17912 -5.15998,2.17684 -5.20651,2.21709 -0.0465,0.0402 2.96326,0.71585 6.68839,1.50145 3.72514,0.78559 6.79019,1.4441 6.81115,1.46367 0.021,0.0196 -1.75721,2.65805 -3.95125,5.86279 l -3.98902,5.82637 4.61428,0.0857 c 2.53763,0.0471 4.86521,0.10153 5.17278,0.12074 l 0.55916,0.0351 -3.00559,4.33842 c -1.65308,2.38611 -3.06024,4.43552 -3.127,4.55425 -0.0668,0.11873 2.52391,-1.54811 5.75689,-3.70371 3.23298,-2.15559 5.91378,-3.87961 5.95723,-3.83118 0.0434,0.0484 0.748,2.5697 1.56552,5.60244 1.13531,4.21162 1.51882,5.47785 1.62421,5.3623 0.0759,-0.0832 1.67361,-2.83548 3.55059,-6.11641 1.87696,-3.28092 3.47389,-6.05666 3.54856,-6.16834 0.11277,-0.16865 0.64435,0.7862 3.14049,5.63953 1.65276,3.21351 3.02216,5.79218 3.04269,5.73059 0.0205,-0.0616 -0.48421,-2.75353 -1.1217,-5.98217 -0.63749,-3.22865 -1.14185,-5.8859 -1.12035,-5.90529 0.0215,-0.0193 3.09636,1.09895 6.8334,2.48555 3.73705,1.38659 6.81968,2.49657 6.85026,2.46599 0.0306,-0.0306 -1.03911,-3.40724 -2.37762,-7.50319 -1.97537,-6.04477 -2.40849,-7.48793 -2.29872,-7.66372 0.0744,-0.11911 2.06361,-2.55251 4.42003,-5.4075 2.35644,-2.85499 4.25474,-5.22002 4.21902,-5.25574 -0.0357,-0.0357 -2.35125,-0.29936 -5.14579,-0.58614 -2.79453,-0.28677 -5.12902,-0.53738 -5.18828,-0.55714 -0.0593,-0.0197 2.42814,-2.94092 5.52824,-6.49142 6.58599,-7.5429 6.07252,-6.93888 5.75756,-6.76933 -0.13256,0.0713 -3.30502,2.10917 -7.04991,4.52862 -3.7449,2.41946 -6.81926,4.38959 -6.83138,4.37753 -0.0121,-0.012 0.30121,-3.13932 0.69609,-6.94942 0.39487,-3.81009 0.70283,-7.02896 0.68462,-7.15244 -0.0235,-0.15918 -1.24189,1.06239 -4.18733,4.19811 -3.71922,3.95951 -4.16284,4.39345 -4.23723,4.14146 -0.0457,-0.1548 -0.31522,-2.89996 -0.59896,-6.10022 -0.28374,-3.20025 -0.55394,-5.74884 -0.60098,-5.6638 -0.047,0.085 -0.77531,2.51346 -1.61814,5.3967 -0.84282,2.88323 -1.56676,5.30255 -1.60869,5.37647 -0.0454,0.08 -2.459,-1.81525 -5.9606,-4.68038 -3.23642,-2.64816 -5.91495,-4.78471 -5.95182,-4.74784 -0.0369,0.0369 0.002,1.56178 0.0863,3.38871 0.0842,1.82695 0.12437,3.35002 0.0897,3.38466 -0.0346,0.0347 -1.70243,-1.81066 -3.7064,-4.10098 -2.00397,-2.29032 -3.66368,-4.16439 -3.68819,-4.16439 z m 14.5956,10.96272 0.0728,1.59857 c 0.12692,2.7888 0.73386,4.6224 2.47746,7.48565 0.53878,0.88477 1.75045,2.65224 2.47947,3.61737 0.15755,0.20856 0.26907,0.10448 1.55204,-1.44614 2.54121,-3.07136 4.38012,-5.49665 6.22702,-8.21344 0.63395,-0.93255 1.10935,-1.52675 1.14598,-1.4313 0.1941,0.50581 0.21116,1.56866 0.0405,2.55773 -0.52346,3.03324 -2.31611,6.67534 -5.35084,10.87098 l -0.89507,1.23704 0.89777,1.11293 c 0.90027,1.11632 2.85831,3.34745 4.40518,5.02034 l 0.82695,0.89506 1.01985,-1.04548 c 0.56091,-0.57497 1.0735,-1.04548 1.13856,-1.04548 0.065,0 0.45542,0.34043 0.86741,0.75612 l 0.7487,0.75544 -1.38543,1.38139 c -0.76189,0.75972 -1.38476,1.42614 -1.38476,1.48054 0,0.0544 1.11424,1.21734 2.47678,2.5847 l 2.47745,2.48622 -0.78984,0.79052 -0.79052,0.78984 -2.53006,-2.52804 -2.53007,-2.52804 -1.41916,1.4151 -1.41915,1.41512 -0.77433,-0.78108 -0.77433,-0.78107 0.29476,-0.32107 c 0.16219,-0.17666 0.62834,-0.67851 1.03603,-1.11495 l 0.74128,-0.79322 -1.65388,-1.75034 c -0.90987,-0.96267 -2.18621,-2.37421 -2.83629,-3.13644 -0.65008,-0.76223 -1.24458,-1.45321 -1.32068,-1.53585 -0.10798,-0.11727 -0.3624,0.0628 -1.1588,0.82222 -0.56124,0.53517 -1.42059,1.30816 -1.91019,1.71729 -0.48961,0.40912 -1.02084,0.85221 -1.17971,0.98478 l -0.28869,0.24079 0.20775,0.83571 c 0.19428,0.7819 0.19509,0.89759 0.0102,1.79216 -0.19994,0.96696 -0.60873,1.78534 -1.30516,2.61168 l -0.35276,0.41819 -1.43333,-1.42927 -1.43264,-1.42927 -2.92735,2.90913 c -1.60982,1.59977 -2.93152,2.90846 -2.93747,2.90846 -0.006,0 -0.3608,-0.35291 -0.7885,-0.78445 l -0.77769,-0.78512 2.91992,-2.92128 2.91993,-2.92195 -1.41579,-1.42252 -1.41578,-1.42186 0.48227,-0.4101 c 1.35034,-1.1487 3.14794,-1.53391 4.77954,-1.02457 l 0.76354,0.23809 2.0687,-2.06465 c 1.13753,-1.13542 2.13178,-2.18352 2.20968,-2.32906 0.12624,-0.23589 0.0424,-0.40898 -0.77366,-1.59723 -1.85304,-2.69838 -3.81576,-6.29831 -4.418,-8.10349 -0.15581,-0.46705 -0.28473,-1.2217 -0.31905,-1.86837 -0.0487,-0.9186 -0.0165,-1.1929 0.20978,-1.79149 0.32618,-0.86266 1.27714,-1.8548 2.41405,-2.5186 l 0.7777,-0.45394 z"
       id="path4326"
       inkscape:connector-curvature="0" />
  </g>
</svg>
