<?xml version="1.0" encoding="UTF-8" standalone="no"?>
<!-- Created with Inkscape (http://www.inkscape.org/) -->

<svg
   xmlns:dc="http://purl.org/dc/elements/1.1/"
   xmlns:cc="http://creativecommons.org/ns#"
   xmlns:rdf="http://www.w3.org/1999/02/22-rdf-syntax-ns#"
   xmlns:svg="http://www.w3.org/2000/svg"
   xmlns="http://www.w3.org/2000/svg"
   xmlns:sodipodi="http://sodipodi.sourceforge.net/DTD/sodipodi-0.dtd"
   xmlns:inkscape="http://www.inkscape.org/namespaces/inkscape"
   width="18.062222mm"
   height="18.062222mm"
   viewBox="0 0 63.999998 63.999997"
   id="svg2"
   version="1.1"
   inkscape:version="0.91 r13725"
   sodipodi:docname="__dormiente.svg">
  <defs
     id="defs4">
    <inkscape:path-effect
       effect="spiro"
       id="path-effect4352"
       is_visible="true" />
  </defs>
  <sodipodi:namedview
     id="base"
     pagecolor="#ffffff"
     bordercolor="#666666"
     borderopacity="1.0"
     inkscape:pageopacity="0.0"
     inkscape:pageshadow="2"
     inkscape:zoom="2.6005293"
     inkscape:cx="110.34916"
     inkscape:cy="41.882498"
     inkscape:document-units="px"
     inkscape:current-layer="layer1"
     showgrid="false"
     fit-margin-top="0"
     fit-margin-left="0"
     fit-margin-right="0"
     fit-margin-bottom="0"
     inkscape:window-width="1457"
     inkscape:window-height="751"
     inkscape:window-x="110"
     inkscape:window-y="332"
     inkscape:window-maximized="0" />
  <metadata
     id="metadata7">
    <rdf:RDF>
      <cc:Work
         rdf:about="">
        <dc:format>image/svg+xml</dc:format>
        <dc:type
           rdf:resource="http://purl.org/dc/dcmitype/StillImage" />
        <dc:title></dc:title>
      </cc:Work>
    </rdf:RDF>
  </metadata>
  <g
     inkscape:label="Livello 1"
     inkscape:groupmode="layer"
     id="layer1"
     transform="translate(-374.37338,-436.39124)">
    <path
       style="fill:#ffffff"
       d="m 402.16662,445.8678 0,2.09766 0,2.09961 -0.46484,0.0723 c -0.92096,0.14245 -19.75103,2.55469 -19.94141,2.55469 -0.16943,0 -0.19336,-0.2721 -0.19336,-2.08984 l 0,-2.0918 -1.13672,-0.0801 c -0.62477,-0.0444 -1.46228,-0.082 -1.86132,-0.082 l -0.72657,0 0,10.5957 0,10.59571 0.3418,0.13671 c 4.67647,1.86744 8.17261,3.39836 16.53711,7.2461 3.03731,1.39718 6.6672,3.04475 8.06641,3.66015 1.39921,0.61539 2.99108,1.31557 3.53711,1.55664 0.54604,0.24107 1.00637,0.44304 1.02343,0.44922 0.0171,0.006 0.0297,-2.06886 0.0293,-4.61132 l 0,-4.62305 -13.08789,-4.58008 -13.08594,-4.58008 -0.084,-0.55078 c -0.105,-0.70024 0.0819,-1.32225 0.64844,-2.16211 l 0.44531,-0.66015 -0.13477,-0.80665 c -0.0746,-0.44365 -0.17028,-1.14491 -0.21289,-1.55859 l -0.0781,-0.75195 2.40234,-0.64258 c 2.95774,-0.79149 4.28195,-1.07994 5.85547,-1.27344 1.22395,-0.15051 4.03699,-0.10629 4.46484,0.0703 0.18909,0.0781 0.21777,0.038 0.18555,-0.2539 -0.0381,-0.345 -0.0317,-0.34766 1.69922,-0.82617 4.20059,-1.16125 6.59208,-1.5566 8.4707,-1.40235 l 1.02344,0.084 0,-3.71485 0,-3.71679 -1.13477,-0.0801 c -0.62478,-0.0444 -1.46424,-0.0801 -1.86328,-0.0801 l -0.72461,0 z m 1.61524,9.73047 c -0.96062,0.0376 -2.13837,0.22869 -3.66211,0.5625 -2.16762,0.47485 -3.04102,0.73874 -3.04102,0.91992 0,0.083 0.28253,0.42693 0.62695,0.76563 0.34442,0.33871 0.82862,0.93165 1.07813,1.3164 0.36982,0.57029 0.55939,0.73621 1.01953,0.89649 0.74543,0.25965 1.97676,0.18558 3.97461,-0.23633 1.5547,-0.32833 4.42731,-1.20466 4.63867,-1.41602 0.16924,-0.16924 -0.45803,-1.15671 -1.06445,-1.67578 -0.97441,-0.83406 -1.96929,-1.19554 -3.57031,-1.13281 z m -10.98438,2.33398 c -0.86529,-0.031 -1.84201,0.0233 -2.66797,0.14844 -1.41592,0.21446 -5.45809,1.15977 -5.6289,1.31641 -0.15485,0.142 0.25963,1.47494 0.625,2.00976 0.40788,0.59705 1.23264,1.11698 2.39648,1.51172 1.12974,0.38316 1.06145,0.38258 2.97852,0.0703 0.85318,-0.13899 2.1388,-0.39663 2.85547,-0.57226 1.21565,-0.29793 3.9097,-1.18315 4.06054,-1.33399 0.0369,-0.0369 -0.007,-0.24623 -0.0977,-0.46484 -0.25294,-0.61066 -1.45252,-1.74106 -2.34961,-2.21289 -0.74846,-0.39366 -0.90524,-0.42727 -2.17188,-0.47266 z m 18.0293,1.86133 -0.82422,0.37695 c -2.72918,1.24709 -8.40049,2.60032 -9.69141,2.3125 -0.35027,-0.0781 -0.63013,-0.01 -1.55078,0.38086 -2.38148,1.01134 -5.31881,1.87711 -7.63867,2.25 l -0.93164,0.14844 1.55273,0.53125 c 0.85317,0.29163 1.66832,0.53368 1.8125,0.53906 0.14418,0.005 0.67547,-0.16036 1.17969,-0.36914 3.53708,-1.46456 10.7365,-3.49375 16.66406,-4.69726 1.35773,-0.27567 2.48659,-0.51979 2.50977,-0.54297 0.0232,-0.0232 -0.66038,-0.24237 -1.51953,-0.48633 l -1.5625,-0.44336 z m 8.36719,2.45508 c -0.60147,0 -4.43442,0.63083 -7.16211,1.17969 -4.5504,0.91563 -9.14224,2.11081 -13.1543,3.42383 l -1.98438,0.65039 5.14844,1.70898 c 2.83254,0.93962 5.18975,1.7105 5.23828,1.71484 0.0485,0.004 0.10528,-0.47903 0.125,-1.07421 l 0.0352,-1.08204 9.08789,-2.35742 c 4.99812,-1.29699 9.01938,-2.39575 8.93555,-2.4414 -0.31215,-0.16998 -5.96323,-1.72266 -6.26953,-1.72266 z m 15.89062,1.73242 c -0.0519,-0.002 -5.74748,1.46272 -12.6582,3.25391 l -12.56641,3.25586 0,6.18164 0,6.17969 0.2793,-0.0723 c 0.15357,-0.04 5.83567,-1.76251 12.62695,-3.82813 l 12.34766,-3.75585 0.0332,-5.60547 c 0.0178,-3.08299 -0.0107,-5.60739 -0.0625,-5.60938 z m -57.39648,7.83008 c -0.0512,-0.004 -0.0937,0.795 -0.0937,1.77539 l 0,1.78125 0.96289,0.63672 c 0.52897,0.35007 0.98932,0.63786 1.02344,0.63867 0.0341,6.4e-4 0.63557,-0.2298 1.33789,-0.51172 l 0.002,0 1.27539,-0.51172 -0.0352,-0.93164 -0.0371,-0.92968 -2.16992,-0.97071 c -1.19445,-0.53364 -2.21443,-0.97275 -2.26562,-0.97656 z m 57.28515,6.07227 c -0.0434,0 -1.00666,0.28224 -2.14062,0.62695 -1.13397,0.34471 -2.15985,0.65612 -2.2793,0.6914 -0.19236,0.0568 -0.2168,0.24892 -0.2168,1.67383 l 0,1.60742 0.90039,0.42188 c 0.49484,0.23121 0.95519,0.42543 1.02344,0.43164 0.0683,0.006 0.72526,-0.24802 1.45899,-0.56445 l 1.33398,-0.57617 0,-2.15625 c 0,-1.18576 -0.0367,-2.15625 -0.0801,-2.15625 z m -28.94922,6.57812 c -0.0932,0 -0.13476,0.76744 -0.13476,2.46289 l 0,2.46289 1.07812,0.76367 c 0.59244,0.42026 1.13422,0.76368 1.20508,0.76368 0.0709,0 0.73089,-0.26231 1.4668,-0.58204 l 1.33789,-0.58007 0,-2.53125 c 0,-1.96345 -0.0339,-2.52029 -0.1543,-2.48829 -0.0853,0.0227 -0.63889,0.20498 -1.23047,0.4043 l -1.07617,0.36133 -1.17773,-0.51758 c -0.64786,-0.28525 -1.24002,-0.51953 -1.31446,-0.51953 z"
       id="path4164"
       inkscape:connector-curvature="0" />
  </g>
</svg>
