<?xml version="1.0" encoding="UTF-8" standalone="no"?>
<!-- Created with Inkscape (http://www.inkscape.org/) -->

<svg
   xmlns:dc="http://purl.org/dc/elements/1.1/"
   xmlns:cc="http://creativecommons.org/ns#"
   xmlns:rdf="http://www.w3.org/1999/02/22-rdf-syntax-ns#"
   xmlns:svg="http://www.w3.org/2000/svg"
   xmlns="http://www.w3.org/2000/svg"
   xmlns:sodipodi="http://sodipodi.sourceforge.net/DTD/sodipodi-0.dtd"
   xmlns:inkscape="http://www.inkscape.org/namespaces/inkscape"
   width="18.062222mm"
   height="18.062222mm"
   viewBox="0 0 63.999998 63.999997"
   id="svg2"
   version="1.1"
   inkscape:version="0.91 r13725"
   sodipodi:docname="_monete.svg">
  <defs
     id="defs4">
    <inkscape:path-effect
       effect="spiro"
       id="path-effect4352"
       is_visible="true" />
  </defs>
  <sodipodi:namedview
     id="base"
     pagecolor="#ffffff"
     bordercolor="#666666"
     borderopacity="1.0"
     inkscape:pageopacity="0.0"
     inkscape:pageshadow="2"
     inkscape:zoom="3.1206351"
     inkscape:cx="83.754175"
     inkscape:cy="26.41022"
     inkscape:document-units="px"
     inkscape:current-layer="layer1"
     showgrid="false"
     fit-margin-top="0"
     fit-margin-left="0"
     fit-margin-right="0"
     fit-margin-bottom="0"
     inkscape:window-width="1457"
     inkscape:window-height="751"
     inkscape:window-x="211"
     inkscape:window-y="268"
     inkscape:window-maximized="0" />
  <metadata
     id="metadata7">
    <rdf:RDF>
      <cc:Work
         rdf:about="">
        <dc:format>image/svg+xml</dc:format>
        <dc:type
           rdf:resource="http://purl.org/dc/dcmitype/StillImage" />
        <dc:title></dc:title>
      </cc:Work>
    </rdf:RDF>
  </metadata>
  <g
     inkscape:label="Livello 1"
     inkscape:groupmode="layer"
     id="layer1"
     transform="translate(-374.37338,-436.39124)">
    <path
       style="fill:#ffffff"
       d="m 403.11667,492.91179 c -0.29969,-0.0438 -0.86307,-0.25147 -1.25195,-0.46157 -4.06023,-2.19356 -7.96153,-3.44917 -12.70496,-4.08901 -1.43686,-0.19382 -6.69775,-0.27689 -7.27699,-0.11491 l -0.2869,0.0802 0,-5.61988 0,-5.61987 1.74752,-0.0632 c 2.70822,-0.0979 6.43281,-0.62829 10.39166,-1.47967 2.75867,-0.59327 3.44612,-0.52159 7.39206,0.77075 2.15031,0.70425 2.33376,0.74607 3.90811,0.89092 2.08525,0.19184 4.94162,0.34848 8.00025,0.43872 l 2.38383,0.0703 1.19029,1.78284 c 1.36102,2.03854 1.35875,1.7895 0.0225,2.46693 -2.32113,1.17676 -6.29429,1.86477 -12.24025,2.11961 l -2.92123,0.1252 0.95946,0.23269 c 2.15363,0.52231 5.12003,0.69276 7.52143,0.4322 2.37152,-0.25732 5.44844,-1.09676 7.63802,-2.08379 1.21168,-0.54621 3.83322,-2.12348 8.65774,-5.20902 0.81943,-0.52406 1.5248,-0.96251 1.5675,-0.97432 0.0427,-0.0118 0.75043,0.56538 1.57274,1.28264 0.82229,0.71727 1.5828,1.3755 1.68999,1.46272 0.18338,0.14922 0.10956,0.22681 -1.24748,1.31138 -5.43986,4.3476 -10.27448,7.56339 -14.74439,9.80742 -3.4431,1.72851 -4.93293,2.12626 -9.12884,2.43719 -1.6178,0.11987 -2.0395,0.12039 -2.84013,0.003 z m 15.51617,-13.82814 c -0.37298,-0.48772 -0.68988,-0.92072 -0.70424,-0.9622 -0.0287,-0.083 7.07864,-3.88337 7.26246,-3.88337 0.0628,0 0.5125,0.24649 0.99939,0.54773 0.66839,0.41354 0.85428,0.57587 0.75876,0.66255 -0.14828,0.13456 -7.32061,4.4102 -7.5099,4.47686 -0.0705,0.0249 -0.4335,-0.35384 -0.80647,-0.84157 z m -1.98131,-2.49688 -0.34637,-0.46227 -0.73784,-0.0303 -0.73785,-0.0303 3.13889,-1.4867 c 1.72639,-0.81768 3.18011,-1.48669 3.2305,-1.48669 0.0503,0 0.40938,0.2191 0.79776,0.48688 l 0.70615,0.48688 -1.12209,0.58909 c -0.61713,0.32401 -1.90073,0.99558 -2.85243,1.49241 l -1.73036,0.9033 -0.34636,-0.46226 z m -6.99103,-0.7145 c 0,-0.0193 1.31595,-0.66062 2.92433,-1.42515 l 2.92433,-1.39004 0.77937,0.19408 c 0.42865,0.10674 0.77937,0.22203 0.77937,0.2562 0,0.0342 -1.11502,0.58865 -2.47783,1.23218 l -2.47782,1.17005 -1.22588,-10e-4 c -0.67422,-6.9e-4 -1.22587,-0.0169 -1.22587,-0.0362 z m -3.51234,-2.41464 c -1.99706,-0.36237 -3.79855,-1.2273 -4.91356,-2.35914 -0.83645,-0.84906 -1.10686,-1.89112 -0.6815,-2.62616 0.25104,-0.43378 1.05446,-0.97381 1.74928,-1.17581 3.18366,-0.92551 7.80763,0.40827 9.39236,2.70922 0.67329,0.97758 0.62542,1.90852 -0.13234,2.57383 -1.00429,0.88178 -3.3221,1.25766 -5.41424,0.87806 z m 5.73732,-10.07444 c -1.68995,-0.33416 -1.84807,-1.48049 -0.41377,-2.9998 1.78768,-1.89365 4.95625,-3.14871 7.63579,-3.02452 1.58385,0.0734 2.23791,0.44778 2.23791,1.28092 0,0.96162 -1.44295,2.46668 -3.33855,3.48228 -1.91137,1.02406 -4.56032,1.56979 -6.12138,1.26112 z m -4.27232,-9.79791 c -1.86358,-1.06887 -3.21937,-4.38812 -2.86573,-7.01588 0.19085,-1.41808 0.86922,-2.56258 1.63245,-2.75413 0.95245,-0.23905 2.38565,0.90642 3.23938,2.58901 0.39619,0.78087 0.75819,2.00412 0.87772,2.96602 0.21109,1.69873 -0.22347,3.40364 -1.06024,4.15961 -0.52913,0.47804 -1.05861,0.49411 -1.82358,0.0553 z"
       id="path4261"
       inkscape:connector-curvature="0" />
  </g>
</svg>
