<?xml version="1.0" encoding="UTF-8" standalone="no"?>
<!-- Created with Inkscape (http://www.inkscape.org/) -->

<svg
   xmlns:dc="http://purl.org/dc/elements/1.1/"
   xmlns:cc="http://creativecommons.org/ns#"
   xmlns:rdf="http://www.w3.org/1999/02/22-rdf-syntax-ns#"
   xmlns:svg="http://www.w3.org/2000/svg"
   xmlns="http://www.w3.org/2000/svg"
   xmlns:sodipodi="http://sodipodi.sourceforge.net/DTD/sodipodi-0.dtd"
   xmlns:inkscape="http://www.inkscape.org/namespaces/inkscape"
   width="18.062222mm"
   height="18.062222mm"
   viewBox="0 0 63.999998 63.999997"
   id="svg2"
   version="1.1"
   inkscape:version="0.91 r13725"
   sodipodi:docname="_pietoso.svg">
  <defs
     id="defs4">
    <inkscape:path-effect
       effect="spiro"
       id="path-effect4352"
       is_visible="true" />
  </defs>
  <sodipodi:namedview
     id="base"
     pagecolor="#ffffff"
     bordercolor="#666666"
     borderopacity="1.0"
     inkscape:pageopacity="0.0"
     inkscape:pageshadow="2"
     inkscape:zoom="3.7447622"
     inkscape:cx="96.089651"
     inkscape:cy="38.547172"
     inkscape:document-units="px"
     inkscape:current-layer="layer1"
     showgrid="false"
     fit-margin-top="0"
     fit-margin-left="0"
     fit-margin-right="0"
     fit-margin-bottom="0"
     inkscape:window-width="1457"
     inkscape:window-height="751"
     inkscape:window-x="400"
     inkscape:window-y="323"
     inkscape:window-maximized="0" />
  <metadata
     id="metadata7">
    <rdf:RDF>
      <cc:Work
         rdf:about="">
        <dc:format>image/svg+xml</dc:format>
        <dc:type
           rdf:resource="http://purl.org/dc/dcmitype/StillImage" />
        <dc:title></dc:title>
      </cc:Work>
    </rdf:RDF>
  </metadata>
  <g
     inkscape:label="Livello 1"
     inkscape:groupmode="layer"
     id="layer1"
     transform="translate(-374.37338,-436.39124)">
    <path
       style="fill:#000000"
       d="m 430.72581,441.90665 c -1.63015,0.005 -4.85484,1.61951 -6.18359,3.0957 -0.96493,1.07201 -2.43401,3.38164 -3.375,5.30469 -0.65271,1.3339 -0.91142,1.75167 -1.04687,1.69922 -0.0989,-0.0383 -0.63707,-0.0911 -1.19727,-0.11719 -0.77622,-0.0362 -1.07287,-0.005 -1.24414,0.13086 -0.32509,0.25775 -0.42591,1.02556 -0.26172,1.99219 0.13757,0.8099 0.1336,0.84382 -0.13867,1.09961 l -0.28125,0.26367 1.34766,1.35156 1.34765,1.34961 0.3125,-0.29883 c 0.17164,-0.16445 0.33691,-0.27247 0.36719,-0.24219 0.0303,0.0303 0.41928,0.11236 0.86523,0.1836 0.93865,0.14994 1.68288,0.0111 1.87696,-0.35156 0.15289,-0.28569 0.15862,-1.61428 0.01,-2.13477 l -0.11328,-0.39258 1.46094,-0.72851 c 3.98625,-1.99057 6.13698,-3.66877 7.26758,-5.66993 1.16906,-2.06924 1.62513,-3.74293 1.32422,-4.85546 -0.26224,-0.96952 -1.25482,-1.68301 -2.3379,-1.67969 z m -17.4121,10.50195 -11.45313,11.45899 -11.45117,11.45703 4.66406,4.61718 4.66406,4.61719 11.45313,-11.45898 11.45117,-11.45703 -4.66406,-4.61719 -4.66406,-4.61719 z m -20.23243,26.32617 -0.30859,0.29492 c -0.26732,0.25609 -0.36181,0.28065 -0.72266,0.18555 -0.96042,-0.25309 -1.9618,-0.19639 -2.28711,0.12891 -0.22957,0.22958 -0.24908,0.35079 -0.19726,1.28711 0.0315,0.56899 0.0887,1.11598 0.12695,1.21484 0.0525,0.13546 -0.36531,0.3922 -1.69922,1.04492 -1.92304,0.94099 -4.23268,2.41007 -5.30468,3.375 -1.4762,1.32875 -3.09071,4.5554 -3.09571,6.18555 -0.003,1.01269 0.61721,1.95812 1.4961,2.2832 0.73389,0.27144 1.89744,0.14637 3.09375,-0.33398 3.40645,-1.36776 5.12767,-3.22159 7.61523,-8.20313 l 0.72852,-1.46093 0.39257,0.11328 c 0.5205,0.14927 1.84909,0.14354 2.13477,-0.01 0.3617,-0.19357 0.50054,-0.9385 0.35156,-1.87109 -0.0707,-0.44261 -0.14987,-0.84164 -0.17773,-0.88672 -0.0279,-0.0451 0.0833,-0.20848 0.24804,-0.36328 l 0.30079,-0.28125 -1.34766,-1.35156 -1.34766,-1.35157 z"
       id="path4306"
       inkscape:connector-curvature="0" />
  </g>
</svg>
