<?xml version="1.0" encoding="UTF-8" standalone="no"?>
<!-- Created with Inkscape (http://www.inkscape.org/) -->

<svg
   xmlns:dc="http://purl.org/dc/elements/1.1/"
   xmlns:cc="http://creativecommons.org/ns#"
   xmlns:rdf="http://www.w3.org/1999/02/22-rdf-syntax-ns#"
   xmlns:svg="http://www.w3.org/2000/svg"
   xmlns="http://www.w3.org/2000/svg"
   xmlns:sodipodi="http://sodipodi.sourceforge.net/DTD/sodipodi-0.dtd"
   xmlns:inkscape="http://www.inkscape.org/namespaces/inkscape"
   width="18.062222mm"
   height="18.062222mm"
   viewBox="0 0 63.999998 63.999997"
   id="svg2"
   version="1.1"
   inkscape:version="0.91 r13725"
   sodipodi:docname="_sanguinario.svg">
  <defs
     id="defs4">
    <inkscape:path-effect
       effect="spiro"
       id="path-effect4352"
       is_visible="true" />
  </defs>
  <sodipodi:namedview
     id="base"
     pagecolor="#ffffff"
     bordercolor="#666666"
     borderopacity="1.0"
     inkscape:pageopacity="0.0"
     inkscape:pageshadow="2"
     inkscape:zoom="5.3924575"
     inkscape:cx="26.81515"
     inkscape:cy="28.054616"
     inkscape:document-units="px"
     inkscape:current-layer="layer1"
     showgrid="false"
     fit-margin-top="0"
     fit-margin-left="0"
     fit-margin-right="0"
     fit-margin-bottom="0"
     inkscape:window-width="1457"
     inkscape:window-height="751"
     inkscape:window-x="293"
     inkscape:window-y="323"
     inkscape:window-maximized="0" />
  <metadata
     id="metadata7">
    <rdf:RDF>
      <cc:Work
         rdf:about="">
        <dc:format>image/svg+xml</dc:format>
        <dc:type
           rdf:resource="http://purl.org/dc/dcmitype/StillImage" />
        <dc:title></dc:title>
      </cc:Work>
    </rdf:RDF>
  </metadata>
  <g
     inkscape:label="Livello 1"
     inkscape:groupmode="layer"
     id="layer1"
     transform="translate(-374.37338,-436.39124)">
    <path
       style="fill:#ffffff"
       d="m 399.32138,441.61322 -3.13199,0.03 -3.13199,0.03 1.57515,1.01402 c 5.93894,3.82672 11.57777,8.29919 15.8431,12.56624 1.38825,1.38882 4.50879,4.8392 4.76542,5.26828 0.0892,0.14922 -5.50429,-1.25597 -8.15383,-2.04803 -6.67243,-1.9947 -15.70585,-5.32957 -24.75452,-9.13955 -1.39098,-0.58568 -2.57996,-1.06563 -2.64246,-1.06563 -0.0726,0 -0.11489,0.82933 -0.11489,2.29611 l 0,2.29446 2.73571,1.16055 c 16.53264,7.01644 33.08231,12.31685 47.89061,15.33859 3.28116,0.66954 3.18172,0.66305 2.75568,0.19482 -2.73126,-3.00179 -6.93086,-7.14901 -10.59648,-10.46495 -6.36015,-5.75343 -12.73428,-10.6707 -20.38207,-15.72154 l -2.65744,-1.75332 z m -19.74601,0.004 0,2.14127 0,2.13962 0.42292,0.18148 c 7.80062,3.32727 14.90902,6.10223 21.11304,8.24375 2.55943,0.88348 7.58196,2.49089 7.83413,2.50758 0.0603,0.004 -0.24525,-0.35223 -0.67768,-0.79256 -1.54851,-1.57682 -5.13987,-4.65363 -7.83247,-6.70856 -2.94479,-2.24739 -7.00207,-5.01072 -10.057,-6.85008 l -1.43362,-0.8625 -4.68383,0 -4.68549,0 z m 2.99378,14.81742 c -0.0401,0.004 -0.0137,0.0567 0.0433,0.16318 0.28491,0.53235 0.94327,2.29601 1.24546,3.33512 0.86269,2.96637 1.29185,6.22077 1.21217,9.19616 -0.065,2.42749 -0.14522,2.77943 -1.21217,5.29824 -1.24553,2.94043 -1.41979,3.7318 -1.0723,4.87697 0.33241,1.09549 1.27068,2.05592 2.35939,2.41268 0.62941,0.20626 1.80737,0.12837 2.46265,-0.16151 1.34087,-0.59313 2.27234,-2.01343 2.27114,-3.46333 -6.3e-4,-0.92309 -0.10409,-1.24012 -1.23048,-3.79136 -1.01929,-2.30862 -1.17197,-2.8552 -1.25547,-4.49568 -0.17731,-3.48369 1.11296,-7.28901 3.14199,-9.27441 0.55801,-0.54601 0.63074,-0.66374 0.46122,-0.72597 -0.36912,-0.13549 -7.63584,-3.0523 -8.07224,-3.24022 -0.20877,-0.0899 -0.31464,-0.13425 -0.35466,-0.12987 z m 19.16158,7.30131 c -0.0198,0.0201 0.20959,0.36149 0.50784,0.75761 2.53047,3.36086 4.1087,9.01819 4.25259,15.23868 0.0968,4.18237 -0.10669,5.44386 -1.34538,8.33865 -1.36311,3.18555 -1.59087,4.07764 -1.32872,5.20332 0.30682,1.31759 1.24528,2.34457 2.51757,2.75736 0.76695,0.24884 2.04051,0.15111 2.83894,-0.21813 1.24718,-0.57675 2.07262,-1.70577 2.25284,-3.08037 0.10725,-0.81809 -0.28717,-2.20796 -1.35037,-4.76043 -0.47463,-1.13944 -0.95913,-2.45014 -1.0773,-2.91219 -0.7807,-3.05248 -0.67189,-8.13201 0.24976,-11.70375 0.30542,-1.18364 1.01415,-2.6623 1.4536,-3.03208 0.43356,-0.36482 1.12286,-0.39572 1.65175,-0.0733 1.08565,0.66196 1.72225,2.9547 1.57182,5.65956 -0.0939,1.68915 -0.34008,2.74226 -1.03734,4.44406 -0.33305,0.8129 -0.65497,1.69991 -0.71597,1.97144 -0.34635,1.5415 0.92499,2.96073 2.48761,2.77566 1.38109,-0.16357 2.24508,-1.3842 1.98642,-2.8073 -0.0555,-0.30539 -0.38582,-1.274 -0.73429,-2.15293 -0.62791,-1.5837 -0.63413,-1.61188 -0.68435,-3.00544 -0.0299,-0.82778 0.008,-1.80164 0.0916,-2.36772 0.31315,-2.12269 1.18527,-4.52452 2.0547,-5.65456 l 0.40128,-0.52116 -2.49593,-0.70266 c -3.69043,-1.03977 -6.85036,-2.00128 -10.37336,-3.15863 -1.72662,-0.56722 -3.15552,-1.01582 -3.17528,-0.99571 z m 19.47794,5.77944 c -0.0204,0.0204 0.14552,0.37151 0.36964,0.77925 1.56273,2.84304 2.05369,7.81559 1.1822,11.97016 -0.26089,1.24371 -0.44893,1.78034 -1.39533,3.97784 -1.1768,2.73247 -1.46086,3.64525 -1.46192,4.70381 -0.002,1.98117 1.24625,3.65525 3.19525,4.28754 0.84583,0.27442 2.22878,0.15359 3.09204,-0.2714 1.52868,-0.75257 2.61262,-2.32937 2.73736,-3.97951 0.056,-0.74081 0.0201,-0.94926 -0.33634,-2.00973 -0.21881,-0.65115 -0.81141,-2.09557 -1.31707,-3.20858 -1.03977,-2.28858 -1.29407,-3.11461 -1.47192,-4.7804 -0.38745,-3.62887 1.15906,-7.35562 3.75473,-9.04631 l 0.6527,-0.42459 -0.6527,-0.13154 c -1.38417,-0.281 -6.13744,-1.35079 -7.19808,-1.62011 -0.6127,-0.15558 -1.13015,-0.26684 -1.15056,-0.24643 z"
       id="path4284"
       inkscape:connector-curvature="0" />
  </g>
</svg>
